<?xml version="1.0" encoding="UTF-8"?>
<svg id="Calque_1" xmlns="http://www.w3.org/2000/svg" version="1.1" viewBox="0 0 166 54.4">
  <!-- Generator: Adobe Illustrator 29.1.0, SVG Export Plug-In . SVG Version: 2.1.0 Build 142)  -->
  <defs>
    <style>
      .st0 {
        fill: #141392;
      }

      .st1 {
        fill: #db1d1b;
      }
    </style>
  </defs>
  <g>
    <path class="st1" d="M35.9,2.7v32.6h-9.4v-18.7l-5.8,7.6-6.3-7.4c-1.4-.3-.4.8-.4.9v17.6H4.5V12.7l-2.7-.9L4.5,2.9h9.6l6.3,6.5,5.9-6.7s9.6,0,9.6,0Z"/>
    <polygon class="st1" points="135.5 12 132.8 12 135.6 2.7 146 2.7 153.9 15.2 153.9 2.7 163.8 2.7 163.8 35.2 155 35.2 144.9 19.6 144.9 35.2 135.5 35.2 135.5 12"/>
    <path class="st1" d="M110.5,2.3c21.4-2.9,28,25,10.2,32-24.9,9.8-34.2-28.8-10.2-32ZM112.2,12.1c-8.7,1.8-6.2,14.7,2.1,14.2,9.8-.7,8.4-16.3-2.1-14.2Z"/>
    <path class="st1" d="M95.5,4l-4,10.7c-3.2-3.3-8.3-4.5-11.8-.9-5.2,5.4-.2,13.9,7.4,12.2,2.1-.5,2.7-1.9,4.4-2.5l3.8,8.9c-10.5,7.5-26,1.2-27.2-11.8-1.3-15.2,14.6-22.7,27.3-16.7h0Z"/>
    <path class="st1" d="M59.7,2.7l5.8,31.2c-3-2-6.4-1.9-9.9-1.8l-2.5-16.1-3,16c-3.2,0-6.6,0-9.4,1.8l3.1-17-2.2-.2,2.2-14.1h15.7s.2.2.2.2Z"/>
    <path class="st0" d="M59,46.8c-1.5-.3-.9-1.7-1.4-1.8-.7-.2-8.7,0-9.2.3-.4.2-.9,1.6-1.1,1.6h-8.8c.4-3.1.7-11.3,3.4-12.9,1.2-.7,3.1-.9,4.4-1,3.7-.3,10.8-.4,14.4,0,2.3.2,4.3,1.2,5,3.5.4,1.1,1.9,8.5,1.8,9.4,0,.5-.2.7-.6,1h-8.1.2,0ZM64.6,38.4c-.3-2-1.5-3.4-3.4-4-2.8-.9-14.9-.8-17.4.5-1,.5-2.5,2.3-2.5,3.5h23.3ZM41.4,40.7c-1.9,1.6.2,6.2,3.3,3.9,2.9-2.1-.9-6-3.3-3.9ZM60.7,40.7c-2.3,2.2,1.9,6.1,4,3.3,2.1-3-2-5.2-4-3.3Z"/>
    <path class="st1" d="M47.1,51.8h-9.4l.9-4.5c.3,0,.6.5.7.5h7.6s.3-.4.5-.4l.7.7-.9,3.8h0Z"/>
    <path class="st1" d="M68.6,51.8h-9.4l-.9-4h8.8s.4-.5.7-.5l.9,4.5h0Z"/>
    <rect class="st1" x="135.5" y="49.1" width="9.4" height="2.7"/>
  </g>
  <g>
    <path class="st0" d="M73.2,40.1v3.8c0,1,0,1.1,1,1.1h.9v-4.9h3.8v4.8h.9l-1,3h-3.7v-1.6l-.7,1.6h-1c-1.3,0-2.3,0-3.2-.7-.7-.5-.8-1.3-.8-2.4v-1.7h-.8l.9-3h3.7,0Z"/>
    <path class="st0" d="M84.8,40.1h1.4l-.9,3h-.6v4.8h-3.8v-4.8h-1.1l.9-3h.2v-.9l3.8-.8v1.7h0Z"/>
    <path class="st0" d="M96.3,44c0,2.2-2.2,4.1-5,4.1s-5-1.8-5-4.1,2.2-4,5-4,5,1.8,5,4ZM89.9,44c0,.7.6,1.2,1.4,1.2s1.4-.5,1.4-1.2-.6-1.2-1.4-1.2-1.4.5-1.4,1.2Z"/>
    <path class="st0" d="M101.2,40.1v1.5l.7-1.5h1.5c1.8,0,2.5.3,3.1,1.7l.8-1.7h.8c.8,0,2.2,0,3.1.7.8.7.8,1.6.8,2.3v1.7h.9l-1,3h-3.7v-3.2c0-.6,0-1.3-.5-1.5h-1.2v4.8h-3.8v-3.3c0-1,0-1.5-.8-1.5h-.9v4.8h-3.8v-4.8h-.8l.9-3h3.9Z"/>
    <path class="st0" d="M123.1,44c0,2.2-2.2,4.1-5,4.1s-5-1.8-5-4.1,2.2-4,5-4,5,1.8,5,4ZM116.7,44c0,.7.6,1.2,1.4,1.2s1.4-.5,1.4-1.2-.6-1.2-1.4-1.2-1.4.5-1.4,1.2Z"/>
    <path class="st0" d="M127.9,47.8h-3.7v-7.9h-.8l.9-3h3.7v4.7l.7-1.5c1.4-.2,2.9,0,4,.9,1.6,1.1,2,2.6,1.7,3.8-.2,1-.9,2.2-2.5,2.8-1.5.5-3,.5-3.9,0h0v.2h0ZM130.5,44.1c0-.6-.6-1-1.3-1h-1.3v1c0,.6.6,1,1.3,1s1.3-.5,1.3-1Z"/>
    <path class="st0" d="M139.2,40.1v4.8h.9l-1,3h-3.7v-4.8h-.8l.9-3h3.7ZM139.8,36.9l-.8,2.6h-3.7l.9-2.6h3.7,0Z"/>
    <path class="st0" d="M144.9,36.9v7.9h.9l-1,3h-3.7v-7.9h-.8l.9-3h3.7Z"/>
    <path class="st0" d="M150.2,44.6c1.4.8,3.3.9,5.3.4l-.8,2.6c-1.7.4-5.3.6-7.3-1.1-1.2-1-1.5-2.6-1.1-3.8.5-1.3,1.6-2.2,3-2.6,1.3-.3,3.5-.2,4.9.8,1.4,1.1,1.7,2.7,1.7,3.7h-5.7,0ZM149.7,42.8h2.5c-.1-.5-.9-.7-1.2-.7-.5,0-1,.2-1.3.7Z"/>
    <path class="st0" d="M162.5,43.1c-.7-.5-1.5-.7-2-.7s-.3,0-.3.3c0,0,0,.2.5.3.3,0,.9.2,1.2.4.7.3,1.1.5,1.5,1,.5.6.5,1.4,0,2.1-.5,1-1.6,1.3-2.7,1.4-1.3.2-2.7,0-4.4-.6l.7-2.6c.9.6,1.8.7,2.2.8.3,0,.6,0,.6-.3s0-.3-.3-.3-.6,0-1.3-.3c-2.2-.7-2.1-2.2-1.9-2.8.2-.9,1-1.5,2-1.7,1.2-.3,2.9-.2,4.9.6l-.7,2.4h0Z"/>
  </g>
  <polygon class="st1" points="95.4 4.4 95.7 3.8 88.9 1.6 89.2 2.5 95.4 4.4"/>
</svg>